<?xml version="1.0" encoding="UTF-8" standalone="no"?>
<!-- Created with Inkscape (http://www.inkscape.org/) -->

<svg
   width="1920"
   height="1080"
   viewBox="0 0 1920 1080"
   version="1.1"
   id="svg5"
   inkscape:version="1.1.2 (0a00cf5339, 2022-02-04)"
   sodipodi:docname="darksky.svg"
   xmlns:inkscape="http://www.inkscape.org/namespaces/inkscape"
   xmlns:sodipodi="http://sodipodi.sourceforge.net/DTD/sodipodi-0.dtd"
   xmlns:xlink="http://www.w3.org/1999/xlink"
   xmlns="http://www.w3.org/2000/svg"
   xmlns:svg="http://www.w3.org/2000/svg">
  <sodipodi:namedview
     id="namedview7"
     pagecolor="#ffffff"
     bordercolor="#666666"
     borderopacity="1.0"
     inkscape:pageshadow="2"
     inkscape:pageopacity="0.0"
     inkscape:pagecheckerboard="0"
     inkscape:document-units="px"
     showgrid="false"
     inkscape:zoom="0.61614583"
     inkscape:cx="942.95858"
     inkscape:cy="540.45647"
     inkscape:window-width="1920"
     inkscape:window-height="1043"
     inkscape:window-x="0"
     inkscape:window-y="0"
     inkscape:window-maximized="1"
     inkscape:current-layer="text5664" />
  <defs
     id="defs2">
    <linearGradient
       inkscape:collect="always"
       id="linearGradient20476">
      <stop
         style="stop-color:#ff6600;stop-opacity:1;"
         offset="0"
         id="stop20472" />
      <stop
         style="stop-color:#ff6600;stop-opacity:0;"
         offset="1"
         id="stop20474" />
    </linearGradient>
    <rect
       x="62.658809"
       y="200.40266"
       width="1804.4572"
       height="601.6169"
       id="rect5666" />
    <radialGradient
       inkscape:collect="always"
       xlink:href="#linearGradient20476"
       id="radialGradient20478"
       cx="1505.3625"
       cy="324.60216"
       fx="1505.3625"
       fy="324.60216"
       r="78.097936"
       gradientTransform="matrix(1,0,0,0.99238238,0,2.472695)"
       gradientUnits="userSpaceOnUse" />
  </defs>
  <g
     inkscape:label="Layer 1"
     inkscape:groupmode="layer"
     id="layer1">
    <g
       aria-label="Dark Sky"
       transform="translate(325.98696,163.7199)"
       id="text5664"
       style="font-size:266.667px;line-height:1.25;white-space:pre;shape-inside:url(#rect5666)">
      <path
         d="m 115.65306,447.30883 q -13.41148,0 -20.442734,-3.38542 -6.90105,-3.38542 -9.375011,-11.06772 -2.343753,-7.6823 -2.343753,-20.44273 V 295.48573 q 0,-13.02085 2.343753,-20.57294 2.473961,-7.6823 9.375011,-10.93751 7.031254,-3.38543 20.442734,-3.38543 h 39.97401 q 27.99482,0 48.95839,8.33335 21.09378,8.33334 32.81254,28.25524 11.71876,19.79169 11.71876,54.42715 0,34.63546 -11.71876,55.72924 -11.71876,20.96356 -32.81254,30.46878 -20.96357,9.50522 -48.95839,9.50522 z m 24.73961,-152.47414 q -8.59376,0 -11.71876,3.64584 -3.12501,3.64583 -3.12501,12.50001 v 85.93761 q 0,8.72397 3.12501,12.50001 3.125,3.77605 11.71876,3.77605 h 5.98959 q 27.86462,0 43.09901,-13.67189 15.36461,-13.6719 15.36461,-47.3959 0,-22.52606 -7.03126,-34.89587 -6.90105,-12.50002 -20.05211,-17.44794 -13.15106,-4.94792 -31.64066,-4.94792 z"
         style="font-family:'ADLaM Display';-inkscape-font-specification:'ADLaM Display';fill:none;stroke:#4d4d4d;stroke-opacity:1;stroke-width:10;stroke-miterlimit:4;stroke-dasharray:none"
         id="path18562" />
      <path
         d="m 310.31475,450.56405 q -19.14065,0 -30.46879,-10.6771 -11.19793,-10.80731 -11.19793,-29.68754 0,-9.76563 3.51563,-18.09898 3.64584,-8.46355 12.50002,-14.84377 8.98438,-6.51042 25.00003,-10.41668 16.14585,-3.90625 41.14588,-4.55729 0,-11.84898 -5.98959,-17.05732 -5.85938,-5.20833 -17.70835,-5.20833 -10.6771,0 -17.44794,3.64583 -6.77084,3.64584 -8.46355,4.94793 -1.82292,1.5625 -4.42709,1.17187 -3.51563,-0.52083 -7.5521,-1.82292 -3.90625,-1.30208 -8.46355,-2.99479 -0.65104,-0.26042 -1.43229,-0.78125 -0.78125,-0.65105 -0.91146,-1.82292 0,-0.65104 0.13021,-1.5625 0.13021,-1.04167 0.65104,-3.64584 0.52083,-2.60417 1.5625,-6.38022 1.04167,-3.90625 1.95313,-5.98959 1.17188,-2.21354 3.90626,-4.16667 2.21354,-1.82292 13.41147,-5.85938 11.19793,-4.03647 32.42191,-4.03647 58.46362,0 58.46362,56.90112 v 73.698 q 0,2.47396 -1.4323,4.29688 -1.30208,1.69271 -4.55729,1.69271 h -19.53128 q -2.08333,0 -3.77604,-0.52083 -1.56251,-0.65104 -2.9948,-2.34375 l -8.07293,-10.41668 h -0.91145 q -5.9896,8.72397 -16.14586,12.63022 -10.02605,3.90626 -23.17711,3.90626 z m 14.32293,-30.20838 q 11.97919,0 18.09899,-6.11979 6.11979,-6.1198 7.8125,-12.63023 v -14.45314 q -18.09898,0 -27.21357,2.86459 -8.98439,2.73437 -11.97918,7.29167 -2.9948,4.42709 -2.9948,9.63543 0,7.55209 4.68751,10.54689 4.6875,2.86458 11.58855,2.86458 z"
         style="font-family:'ADLaM Display';-inkscape-font-specification:'ADLaM Display';fill:none;stroke:#4d4d4d;stroke-opacity:1;stroke-width:10;stroke-miterlimit:4;stroke-dasharray:none"
         id="path18564" />
      <path
         d="m 465.91391,338.71495 h 0.52083 q 9.76564,-27.08337 35.1563,-27.08337 3.25521,0 5.33855,0.39063 2.08333,0.26042 2.86458,0.52083 1.95313,0.65105 1.95313,2.9948 v 31.38025 q 0,4.03646 -4.68751,2.21354 -1.5625,-0.65104 -4.55729,-1.30209 -2.86459,-0.78125 -8.07293,-0.78125 -13.41147,0 -20.96357,9.89585 -7.55209,9.76564 -7.55209,26.69274 v 56.7709 q 0,3.90626 -1.69271,5.46876 -1.5625,1.43229 -5.46876,1.43229 h -26.82295 q -3.90625,0 -5.59896,-1.43229 -1.5625,-1.5625 -1.5625,-5.46876 V 331.29307 q 0,-3.12501 1.30208,-4.81772 2.73438,-3.64584 6.51043,-7.42188 3.90625,-3.77605 9.50522,-8.07293 1.04166,-0.78125 2.08333,-1.04167 1.04167,-0.26041 1.82292,-0.26041 1.82292,0 3.64584,1.30208 10.8073,8.46355 15.10418,14.45314 1.17188,1.56251 1.17188,3.64584 z"
         style="font-family:'ADLaM Display';-inkscape-font-specification:'ADLaM Display';fill:none;stroke:#4d4d4d;stroke-opacity:1;stroke-width:10;stroke-miterlimit:4;stroke-dasharray:none"
         id="path18566" />
      <path
         d="m 572.29422,440.40778 q 0,3.90626 -1.69271,5.46876 -1.5625,1.43229 -5.46876,1.43229 H 538.3098 q -3.90625,0 -5.59896,-1.43229 -1.5625,-1.5625 -1.5625,-5.46876 V 264.23569 q 0,-3.125 1.30208,-4.81771 5.46876,-7.16147 16.01565,-15.49481 1.82292,-1.30209 3.25521,-1.30209 1.69271,0 3.25521,1.30209 5.59897,4.29688 9.37501,8.07292 3.90626,3.77605 6.64064,7.42189 1.30208,1.69271 1.30208,4.81771 v 102.21367 h 1.5625 q 19.79169,0 26.82295,-7.03126 7.16147,-7.16147 7.16147,-19.79169 v -7.03126 q 0,-3.125 1.30208,-4.81771 5.46876,-7.16147 16.01565,-15.49481 1.82292,-1.30209 3.25521,-1.30209 1.69271,0 3.25521,1.30209 5.59897,4.29688 9.37501,8.07292 3.90626,3.77605 6.64064,7.42189 1.30208,1.69271 1.30208,4.81771 v 7.03126 q 0,7.42188 -2.99479,16.40627 -2.86459,8.98439 -10.54689,15.88544 -7.6823,6.90105 -21.87503,8.07292 v 0.65104 q 10.93752,4.81772 18.88023,12.76044 7.94272,7.94271 13.28127,17.05731 5.33855,8.98439 8.20314,17.31773 2.99479,8.20313 3.90625,13.93231 0.91146,5.59896 -3.77605,5.59896 h -34.24483 q -4.42709,0 -5.07813,-5.33855 -0.91146,-6.11979 -4.03646,-14.32293 -2.9948,-8.33334 -8.20314,-16.27606 -5.07813,-7.94272 -12.36981,-13.15106 -7.16146,-5.33855 -16.27606,-5.33855 h -1.5625 z"
         style="font-family:'ADLaM Display';-inkscape-font-specification:'ADLaM Display';fill:none;stroke:#4d4d4d;stroke-opacity:1;stroke-width:10;stroke-miterlimit:4;stroke-dasharray:none"
         id="path18568" />
      <path
         d="m 809.40388,450.43384 q -16.53648,0 -27.474,-2.9948 -10.8073,-2.99479 -17.44793,-7.42188 -6.51043,-4.5573 -10.02606,-8.98439 -1.17187,-1.69271 -2.08333,-3.25521 -0.91146,-1.5625 -1.30209,-3.51563 -0.52083,-2.60417 -1.04167,-6.77084 -0.52083,-4.29688 -0.13021,-9.89585 0.13021,-2.34375 0.91146,-3.25521 0.91146,-1.04167 2.9948,-1.5625 3.77605,-0.91146 9.76564,-1.5625 6.1198,-0.78125 8.72397,-0.78125 2.73437,0 4.42708,1.04166 1.69271,1.04167 4.03647,3.51563 2.60417,2.73438 8.98438,7.03126 6.38022,4.16667 19.66149,4.16667 12.76043,0 19.27085,-5.33855 6.51043,-5.33854 6.51043,-14.84376 0,-5.07813 -3.12501,-9.50522 -2.99479,-4.5573 -11.06772,-8.98439 -8.07293,-4.5573 -23.0469,-9.50522 -24.73962,-8.33334 -35.67713,-20.70315 -10.93751,-12.36981 -10.93751,-34.37504 0,-18.22919 8.85418,-30.46879 8.85417,-12.2396 24.47919,-18.4896 15.62502,-6.25001 36.06775,-6.25001 15.75523,0 26.0417,3.77604 10.41668,3.64584 16.14586,8.33335 5.72917,4.5573 7.42188,7.42188 1.04167,1.69271 1.30208,2.60417 0.39063,0.78125 0.52084,2.21355 0.39062,4.03646 0.26042,8.98438 -0.13021,4.94792 -0.91146,11.19793 -0.39063,2.08334 -1.4323,2.86459 -0.91146,0.65104 -2.86458,0.65104 -12.63023,0.26042 -19.53128,-1.30208 -2.73438,-0.65105 -3.64584,-1.30209 -0.91146,-0.65104 -2.34375,-2.08333 -2.08333,-2.47397 -6.64063,-5.72918 -4.42709,-3.38542 -14.32294,-3.38542 -13.67189,0 -19.40106,6.25001 -5.72917,6.1198 -5.72917,13.8021 0,9.11459 8.46355,14.32293 8.46355,5.07813 26.69274,11.58856 15.23439,5.33855 26.17191,11.58856 10.93751,6.25 16.66668,16.01564 5.85938,9.76564 5.85938,25.78128 0,19.9219 -9.2448,33.07296 -9.11459,13.15106 -25.00003,19.66148 -15.75523,6.38022 -35.80733,6.38022 z"
         style="font-family:'ADLaM Display';-inkscape-font-specification:'ADLaM Display';fill:none;stroke:#4d4d4d;stroke-opacity:1;stroke-width:10;stroke-miterlimit:4;stroke-dasharray:none"
         id="path18570" />
      <path
         d="m 949.89883,440.40778 q 0,3.90626 -1.69271,5.46876 -1.5625,1.43229 -5.46875,1.43229 h -26.82295 q -3.90626,0 -5.59897,-1.43229 -1.5625,-1.5625 -1.5625,-5.46876 V 264.23569 q 0,-3.125 1.30209,-4.81771 5.46875,-7.16147 16.01564,-15.49481 1.82292,-1.30209 3.25521,-1.30209 1.69271,0 3.25522,1.30209 5.59896,4.29688 9.37501,8.07292 3.90625,3.77605 6.64063,7.42189 1.30208,1.69271 1.30208,4.81771 v 102.21367 h 1.56251 q 19.79169,0 26.82295,-7.03126 7.16146,-7.16147 7.16146,-19.79169 v -7.03126 q 0,-3.125 1.30209,-4.81771 5.46875,-7.16147 16.01566,-15.49481 1.8229,-1.30209 3.2552,-1.30209 1.6927,0 3.2552,1.30209 5.599,4.29688 9.375,8.07292 3.9063,3.77605 6.6407,7.42189 1.302,1.69271 1.302,4.81771 v 7.03126 q 0,7.42188 -2.9948,16.40627 -2.8645,8.98439 -10.5468,15.88544 -7.6823,6.90105 -21.87507,8.07292 v 0.65104 q 10.93747,4.81772 18.88027,12.76044 7.9427,7.94271 13.2812,17.05731 5.3386,8.98439 8.2032,17.31773 2.9948,8.20313 3.9062,13.93231 0.9115,5.59896 -3.776,5.59896 h -34.24487 q -4.42708,0 -5.07813,-5.33855 -0.91146,-6.11979 -4.03646,-14.32293 -2.9948,-8.33334 -8.20314,-16.27606 -5.07813,-7.94272 -12.3698,-13.15106 -7.16147,-5.33855 -16.27606,-5.33855 h -1.56251 z"
         style="font-family:'ADLaM Display';-inkscape-font-specification:'ADLaM Display';fill:none;stroke:#4d4d4d;stroke-opacity:1;stroke-width:10;stroke-miterlimit:4;stroke-dasharray:none"
         id="path18572" />
      <path
         d="m 1063.8312,509.93912 q -4.8177,0 -7.2916,-1.04167 -2.474,-0.91146 -4.1667,-2.34375 -3.3854,-3.25522 -7.2917,-9.1146 -0.9114,-1.43229 -1.9531,-3.38542 -1.0417,-1.82292 -1.0417,-3.125 0,-1.4323 0.6511,-2.60417 0.651,-1.17188 1.5625,-2.21355 2.0833,-2.73437 5.0781,-5.72917 2.9948,-2.86459 5.0781,-4.5573 1.4323,-1.17187 2.3438,-1.5625 0.9114,-0.26042 1.5625,-0.26042 0.651,0 1.9531,0.26042 1.3021,0.26042 3.9063,0.26042 8.9844,0 18.75,-5.85938 9.7656,-5.85939 19.2708,-22.00524 -9.8958,-9.11459 -19.5312,-22.78649 -9.5052,-13.8021 -17.1875,-29.81774 -7.6823,-16.14585 -12.3699,-32.1615 -4.5572,-16.01564 -4.5572,-29.55733 0,-2.86458 1.4322,-4.55729 5.9896,-7.42189 17.0574,-15.49481 1.9531,-1.30209 3.5156,-1.30209 1.6927,0 3.5156,1.30209 5.9896,4.29688 10.0261,8.07292 4.1666,3.77605 7.0312,7.42189 1.4323,1.69271 1.4323,4.81771 v -0.52083 q 0,10.28647 2.474,21.74482 2.4739,11.45834 6.7708,22.39586 4.2969,10.8073 9.6355,19.66148 5.3385,8.72397 11.0677,13.93231 h 0.651 q 2.6042,-4.94793 5.7292,-14.19273 3.2552,-9.37501 6.1198,-20.70315 2.8646,-11.45835 4.6875,-22.65628 1.8229,-11.32814 1.8229,-20.0521 v 0.39062 q 0,-3.125 1.3021,-4.81771 2.9948,-3.64584 7.0313,-7.42189 4.0364,-3.77604 9.7656,-8.07292 1.8229,-1.30209 3.3854,-1.30209 1.8229,0 3.3854,1.30209 5.8594,4.29688 9.8959,8.07292 4.0364,3.77605 6.901,7.42189 1.3021,1.69271 1.3021,4.6875 -0.1302,11.84898 -4.5573,30.98962 -4.4271,19.01044 -12.8906,41.2761 -8.4636,22.26565 -20.573,43.61984 -18.0989,32.1615 -39.0625,46.87506 -20.9636,14.71356 -43.6199,14.71356 z m 120.7033,-177.73459 v 0.39062 -0.13021 q 0,-0.13021 0,-0.26041 z m -135.9376,0 v 0.1302 0.26042 z"
         style="font-family:'ADLaM Display';-inkscape-font-specification:'ADLaM Display';fill:none;stroke:#4d4d4d;stroke-opacity:1;stroke-width:10;stroke-miterlimit:4;stroke-dasharray:none"
         id="path18574" />
      <path
         sodipodi:type="star"
         style="fill:url(#radialGradient20478);fill-opacity:1;stroke:#777777;stroke-width:5;stroke-miterlimit:4;stroke-dasharray:none;stroke-opacity:0.67115349"
         id="path20364"
         inkscape:flatsided="false"
         sodipodi:sides="11"
         sodipodi:cx="1505.1604"
         sodipodi:cy="326.00018"
         sodipodi:r1="69.348228"
         sodipodi:r2="34.674114"
         sodipodi:arg1="1.8384027"
         sodipodi:arg2="2.124002"
         inkscape:rounded="0"
         inkscape:randomized="0"
         d="m 1486.8231,392.88007 0.1189,-37.3776 -33.3659,16.84675 20.3079,-31.37974 -37.1773,-3.8666 34.0493,-15.41903 -29.1851,-23.35234 36.9803,5.43711 -11.9269,-35.42387 28.1703,24.56701 9.1181,-36.24858 10.4164,35.89706 27.2681,-25.56462 -10.6446,35.83004 36.7606,-6.76407 -28.326,24.38724 34.582,14.18402 -37.0141,5.20167 21.4238,30.62879 -33.9505,-15.63541 1.4637,37.34913 -20.1078,-31.50835 z"
         transform="translate(-325.98696,-163.7199)"
         inkscape:transform-center-x="5.6665428"
         inkscape:transform-center-y="0.99725845" />
    </g>
  </g>
</svg>
